<svg width="124" height="64" viewBox="0 0 124 64" fill="none" xmlns="http://www.w3.org/2000/svg">
<path d="M43 40.5C43 50.165 35.165 58 25.5 58C15.835 58 8 50.165 8 40.5C8 30.835 15.835 23 25.5 23" stroke="#8860D0" stroke-width="7" stroke-linecap="round" stroke-linejoin="round"/>
<path d="M55 5C50 5 43 8 43 16.5C43 18.4548 43 20.7006 43 23M35 23H43M43 23H54M43 23C43 25.3624 43 55.7815 43 58" stroke="#8860D0" stroke-width="7" stroke-linecap="round" stroke-linejoin="round"/>
<path d="M57.924 48.06C57.316 48.06 56.772 47.916 56.292 47.628C55.812 47.332 55.432 46.932 55.152 46.428C54.872 45.924 54.732 45.356 54.732 44.724C54.732 44.084 54.876 43.512 55.164 43.008C55.46 42.504 55.86 42.108 56.364 41.82C56.868 41.524 57.436 41.376 58.068 41.376C58.692 41.376 59.252 41.524 59.748 41.82C60.252 42.108 60.648 42.504 60.936 43.008C61.232 43.512 61.384 44.084 61.392 44.724L60.984 44.928C60.984 45.52 60.848 46.052 60.576 46.524C60.312 46.996 59.948 47.372 59.484 47.652C59.028 47.924 58.508 48.06 57.924 48.06ZM58.068 47.148C58.516 47.148 58.912 47.044 59.256 46.836C59.608 46.62 59.884 46.328 60.084 45.96C60.292 45.592 60.396 45.18 60.396 44.724C60.396 44.26 60.292 43.848 60.084 43.488C59.884 43.12 59.608 42.828 59.256 42.612C58.912 42.396 58.516 42.288 58.068 42.288C57.628 42.288 57.228 42.396 56.868 42.612C56.516 42.828 56.236 43.12 56.028 43.488C55.82 43.848 55.716 44.26 55.716 44.724C55.716 45.18 55.82 45.592 56.028 45.96C56.236 46.328 56.516 46.62 56.868 46.836C57.228 47.044 57.628 47.148 58.068 47.148ZM60.876 48C60.732 48 60.608 47.956 60.504 47.868C60.408 47.772 60.36 47.648 60.36 47.496V45.516L60.588 44.472L61.392 44.724V47.496C61.392 47.648 61.344 47.772 61.248 47.868C61.152 47.956 61.028 48 60.876 48ZM69.4534 48C69.1174 48 68.8214 47.912 68.5654 47.736C68.3094 47.552 68.1094 47.3 67.9654 46.98C67.8214 46.66 67.7494 46.292 67.7494 45.876V39.132C67.7494 38.98 67.7934 38.86 67.8814 38.772C67.9774 38.676 68.1014 38.628 68.2534 38.628C68.3974 38.628 68.5134 38.676 68.6014 38.772C68.6974 38.86 68.7454 38.98 68.7454 39.132V45.876C68.7454 46.204 68.8094 46.476 68.9374 46.692C69.0734 46.9 69.2454 47.004 69.4534 47.004H69.7534C69.8814 47.004 69.9854 47.052 70.0654 47.148C70.1454 47.236 70.1854 47.352 70.1854 47.496C70.1854 47.648 70.1254 47.772 70.0054 47.868C69.8934 47.956 69.7454 48 69.5614 48H69.4534ZM78.8951 48.06C78.2391 48.06 77.6591 47.92 77.1551 47.64C76.6511 47.352 76.2551 46.956 75.9671 46.452C75.6791 45.948 75.5351 45.372 75.5351 44.724C75.5351 44.068 75.6711 43.492 75.9431 42.996C76.2151 42.492 76.5871 42.096 77.0591 41.808C77.5391 41.52 78.0911 41.376 78.7151 41.376C79.3231 41.376 79.8511 41.516 80.2991 41.796C80.7551 42.068 81.1031 42.448 81.3431 42.936C81.5911 43.424 81.7151 43.98 81.7151 44.604C81.7151 44.74 81.6711 44.852 81.5831 44.94C81.4951 45.02 81.3831 45.06 81.2471 45.06H76.2311V44.232H81.3071L80.7911 44.592C80.7991 44.152 80.7191 43.756 80.5511 43.404C80.3831 43.052 80.1431 42.776 79.8311 42.576C79.5191 42.376 79.1471 42.276 78.7151 42.276C78.2591 42.276 77.8591 42.38 77.5151 42.588C77.1791 42.796 76.9191 43.088 76.7351 43.464C76.5591 43.832 76.4711 44.252 76.4711 44.724C76.4711 45.196 76.5751 45.616 76.7831 45.984C76.9911 46.352 77.2751 46.64 77.6351 46.848C78.0031 47.056 78.4231 47.16 78.8951 47.16C79.1671 47.16 79.4431 47.112 79.7231 47.016C80.0111 46.92 80.2391 46.8 80.4071 46.656C80.5031 46.584 80.6111 46.548 80.7311 46.548C80.8591 46.54 80.9631 46.572 81.0431 46.644C81.1631 46.748 81.2231 46.86 81.2231 46.98C81.2311 47.1 81.1791 47.204 81.0671 47.292C80.8031 47.516 80.4671 47.7 80.0591 47.844C79.6511 47.988 79.2631 48.06 78.8951 48.06ZM90.3937 48.06C89.8977 48.06 89.4137 47.98 88.9417 47.82C88.4777 47.652 88.1057 47.416 87.8257 47.112C87.7297 47.008 87.6897 46.888 87.7057 46.752C87.7217 46.616 87.7857 46.504 87.8977 46.416C88.0257 46.32 88.1537 46.28 88.2817 46.296C88.4177 46.312 88.5297 46.368 88.6177 46.464C88.7937 46.672 89.0377 46.84 89.3497 46.968C89.6617 47.088 90.0057 47.148 90.3817 47.148C90.9337 47.148 91.3377 47.056 91.5937 46.872C91.8577 46.68 91.9937 46.444 92.0017 46.164C92.0017 45.892 91.8697 45.664 91.6057 45.48C91.3497 45.296 90.9097 45.152 90.2857 45.048C89.4777 44.912 88.8857 44.684 88.5097 44.364C88.1417 44.044 87.9577 43.66 87.9577 43.212C87.9577 42.804 88.0697 42.464 88.2937 42.192C88.5177 41.92 88.8097 41.716 89.1697 41.58C89.5377 41.444 89.9337 41.376 90.3577 41.376C90.8937 41.376 91.3577 41.468 91.7497 41.652C92.1417 41.828 92.4577 42.068 92.6977 42.372C92.7857 42.484 92.8217 42.604 92.8057 42.732C92.7977 42.852 92.7337 42.948 92.6137 43.02C92.5097 43.092 92.3857 43.116 92.2417 43.092C92.1057 43.068 91.9897 43.004 91.8937 42.9C91.6937 42.684 91.4657 42.528 91.2097 42.432C90.9537 42.328 90.6617 42.276 90.3337 42.276C89.9177 42.276 89.5817 42.36 89.3257 42.528C89.0697 42.688 88.9417 42.896 88.9417 43.152C88.9417 43.328 88.9857 43.48 89.0737 43.608C89.1697 43.736 89.3337 43.852 89.5657 43.956C89.8057 44.052 90.1457 44.14 90.5857 44.22C91.1857 44.324 91.6577 44.472 92.0017 44.664C92.3537 44.848 92.6017 45.064 92.7457 45.312C92.8977 45.56 92.9737 45.836 92.9737 46.14C92.9737 46.516 92.8657 46.848 92.6497 47.136C92.4417 47.416 92.1457 47.64 91.7617 47.808C91.3777 47.976 90.9217 48.06 90.3937 48.06ZM100.042 48C99.8901 48 99.7661 47.956 99.6701 47.868C99.5741 47.772 99.5261 47.644 99.5261 47.484V41.952C99.5261 41.792 99.5741 41.668 99.6701 41.58C99.7661 41.484 99.8901 41.436 100.042 41.436C100.194 41.436 100.314 41.484 100.402 41.58C100.498 41.668 100.546 41.792 100.546 41.952V47.484C100.546 47.644 100.498 47.772 100.402 47.868C100.314 47.956 100.194 48 100.042 48ZM100.03 40.248C99.8381 40.248 99.6741 40.18 99.5381 40.044C99.4021 39.9 99.3341 39.732 99.3341 39.54C99.3341 39.34 99.4021 39.176 99.5381 39.048C99.6821 38.92 99.8461 38.856 100.03 38.856C100.214 38.856 100.374 38.92 100.51 39.048C100.654 39.176 100.726 39.34 100.726 39.54C100.726 39.732 100.658 39.9 100.522 40.044C100.386 40.18 100.222 40.248 100.03 40.248ZM110.518 48.06C109.91 48.06 109.366 47.916 108.886 47.628C108.406 47.332 108.026 46.932 107.746 46.428C107.466 45.924 107.326 45.356 107.326 44.724C107.326 44.084 107.47 43.512 107.758 43.008C108.054 42.504 108.454 42.108 108.958 41.82C109.462 41.524 110.03 41.376 110.662 41.376C111.286 41.376 111.846 41.524 112.342 41.82C112.846 42.108 113.242 42.504 113.53 43.008C113.826 43.512 113.978 44.084 113.986 44.724L113.578 44.928C113.578 45.52 113.442 46.052 113.17 46.524C112.906 46.996 112.542 47.372 112.078 47.652C111.622 47.924 111.102 48.06 110.518 48.06ZM110.662 47.148C111.11 47.148 111.506 47.044 111.85 46.836C112.202 46.62 112.478 46.328 112.678 45.96C112.886 45.592 112.99 45.18 112.99 44.724C112.99 44.26 112.886 43.848 112.678 43.488C112.478 43.12 112.202 42.828 111.85 42.612C111.506 42.396 111.11 42.288 110.662 42.288C110.222 42.288 109.822 42.396 109.462 42.612C109.11 42.828 108.83 43.12 108.622 43.488C108.414 43.848 108.31 44.26 108.31 44.724C108.31 45.18 108.414 45.592 108.622 45.96C108.83 46.328 109.11 46.62 109.462 46.836C109.822 47.044 110.222 47.148 110.662 47.148ZM113.47 48C113.326 48 113.202 47.956 113.098 47.868C113.002 47.772 112.954 47.648 112.954 47.496V45.516L113.182 44.472L113.986 44.724V47.496C113.986 47.648 113.938 47.772 113.842 47.868C113.746 47.956 113.622 48 113.47 48ZM55.86 61C55.732 61 55.62 60.956 55.524 60.868C55.428 60.772 55.38 60.644 55.38 60.484V54.46C55.38 53.892 55.48 53.396 55.68 52.972C55.88 52.548 56.172 52.22 56.556 51.988C56.948 51.748 57.412 51.628 57.948 51.628C58.1 51.628 58.224 51.672 58.32 51.76C58.416 51.848 58.464 51.956 58.464 52.084C58.464 52.22 58.416 52.332 58.32 52.42C58.224 52.508 58.1 52.552 57.948 52.552C57.612 52.552 57.328 52.632 57.096 52.792C56.864 52.944 56.688 53.16 56.568 53.44C56.448 53.712 56.388 54.028 56.388 54.388V60.484C56.388 60.644 56.34 60.772 56.244 60.868C56.156 60.956 56.028 61 55.86 61ZM54.684 55.552C54.54 55.552 54.424 55.512 54.336 55.432C54.256 55.344 54.216 55.24 54.216 55.12C54.216 54.992 54.256 54.888 54.336 54.808C54.424 54.72 54.54 54.676 54.684 54.676H57.768C57.904 54.676 58.012 54.72 58.092 54.808C58.18 54.888 58.224 54.992 58.224 55.12C58.224 55.24 58.18 55.344 58.092 55.432C58.012 55.512 57.904 55.552 57.768 55.552H54.684ZM64.6342 61C64.4822 61 64.3582 60.956 64.2622 60.868C64.1662 60.772 64.1182 60.644 64.1182 60.484V54.952C64.1182 54.792 64.1662 54.668 64.2622 54.58C64.3582 54.484 64.4822 54.436 64.6342 54.436C64.7862 54.436 64.9062 54.484 64.9942 54.58C65.0902 54.668 65.1382 54.792 65.1382 54.952V60.484C65.1382 60.644 65.0902 60.772 64.9942 60.868C64.9062 60.956 64.7862 61 64.6342 61ZM64.6222 53.248C64.4302 53.248 64.2662 53.18 64.1302 53.044C63.9942 52.9 63.9262 52.732 63.9262 52.54C63.9262 52.34 63.9942 52.176 64.1302 52.048C64.2742 51.92 64.4382 51.856 64.6222 51.856C64.8062 51.856 64.9662 51.92 65.1022 52.048C65.2462 52.176 65.3182 52.34 65.3182 52.54C65.3182 52.732 65.2502 52.9 65.1142 53.044C64.9782 53.18 64.8142 53.248 64.6222 53.248ZM74.7738 61C74.3578 61 73.9858 60.9 73.6578 60.7C73.3298 60.5 73.0698 60.224 72.8778 59.872C72.6938 59.52 72.6018 59.124 72.6018 58.684V52.852C72.6018 52.708 72.6458 52.588 72.7338 52.492C72.8298 52.396 72.9538 52.348 73.1058 52.348C73.2498 52.348 73.3698 52.396 73.4658 52.492C73.5618 52.588 73.6098 52.708 73.6098 52.852V58.684C73.6098 59.06 73.7178 59.372 73.9338 59.62C74.1578 59.868 74.4378 59.992 74.7738 59.992H75.1338C75.2618 59.992 75.3698 60.04 75.4578 60.136C75.5458 60.232 75.5898 60.352 75.5898 60.496C75.5898 60.648 75.5338 60.772 75.4218 60.868C75.3178 60.956 75.1818 61 75.0138 61H74.7738ZM71.8938 55.552C71.7578 55.552 71.6458 55.512 71.5578 55.432C71.4698 55.344 71.4258 55.24 71.4258 55.12C71.4258 54.992 71.4698 54.888 71.5578 54.808C71.6458 54.72 71.7578 54.676 71.8938 54.676H74.8578C74.9938 54.676 75.1058 54.72 75.1938 54.808C75.2818 54.888 75.3258 54.992 75.3258 55.12C75.3258 55.24 75.2818 55.344 75.1938 55.432C75.1058 55.512 74.9938 55.552 74.8578 55.552H71.8938ZM87.4979 61C87.3459 61 87.2219 60.952 87.1259 60.856C87.0299 60.76 86.9819 60.64 86.9819 60.496V57.436C86.9819 56.948 86.8899 56.552 86.7059 56.248C86.5299 55.936 86.2859 55.704 85.9739 55.552C85.6619 55.392 85.3059 55.312 84.9059 55.312C84.5299 55.312 84.1899 55.388 83.8859 55.54C83.5899 55.684 83.3539 55.884 83.1779 56.14C83.0019 56.388 82.9139 56.676 82.9139 57.004H82.2179C82.2339 56.5 82.3659 56.052 82.6139 55.66C82.8699 55.26 83.2099 54.944 83.6339 54.712C84.0579 54.48 84.5299 54.364 85.0499 54.364C85.6099 54.364 86.1099 54.484 86.5499 54.724C86.9979 54.956 87.3499 55.3 87.6059 55.756C87.8699 56.212 88.0019 56.772 88.0019 57.436V60.496C88.0019 60.64 87.9539 60.76 87.8579 60.856C87.7619 60.952 87.6419 61 87.4979 61ZM82.4099 61C82.2499 61 82.1219 60.956 82.0259 60.868C81.9379 60.772 81.8939 60.648 81.8939 60.496V54.952C81.8939 54.792 81.9379 54.668 82.0259 54.58C82.1219 54.484 82.2499 54.436 82.4099 54.436C82.5619 54.436 82.6819 54.484 82.7699 54.58C82.8659 54.668 82.9139 54.792 82.9139 54.952V60.496C82.9139 60.648 82.8659 60.772 82.7699 60.868C82.6819 60.956 82.5619 61 82.4099 61ZM97.8504 61.06C97.1944 61.06 96.6144 60.92 96.1104 60.64C95.6064 60.352 95.2104 59.956 94.9224 59.452C94.6344 58.948 94.4904 58.372 94.4904 57.724C94.4904 57.068 94.6264 56.492 94.8984 55.996C95.1704 55.492 95.5424 55.096 96.0144 54.808C96.4944 54.52 97.0464 54.376 97.6704 54.376C98.2784 54.376 98.8064 54.516 99.2544 54.796C99.7104 55.068 100.058 55.448 100.298 55.936C100.546 56.424 100.67 56.98 100.67 57.604C100.67 57.74 100.626 57.852 100.538 57.94C100.45 58.02 100.338 58.06 100.202 58.06H95.1864V57.232H100.262L99.7464 57.592C99.7544 57.152 99.6744 56.756 99.5064 56.404C99.3384 56.052 99.0984 55.776 98.7864 55.576C98.4744 55.376 98.1024 55.276 97.6704 55.276C97.2144 55.276 96.8144 55.38 96.4704 55.588C96.1344 55.796 95.8744 56.088 95.6904 56.464C95.5144 56.832 95.4264 57.252 95.4264 57.724C95.4264 58.196 95.5304 58.616 95.7384 58.984C95.9464 59.352 96.2304 59.64 96.5904 59.848C96.9584 60.056 97.3784 60.16 97.8504 60.16C98.1224 60.16 98.3984 60.112 98.6784 60.016C98.9664 59.92 99.1944 59.8 99.3624 59.656C99.4584 59.584 99.5664 59.548 99.6864 59.548C99.8144 59.54 99.9184 59.572 99.9984 59.644C100.118 59.748 100.178 59.86 100.178 59.98C100.186 60.1 100.134 60.204 100.022 60.292C99.7584 60.516 99.4224 60.7 99.0144 60.844C98.6064 60.988 98.2184 61.06 97.8504 61.06ZM109.349 61.06C108.853 61.06 108.369 60.98 107.897 60.82C107.433 60.652 107.061 60.416 106.781 60.112C106.685 60.008 106.645 59.888 106.661 59.752C106.677 59.616 106.741 59.504 106.853 59.416C106.981 59.32 107.109 59.28 107.237 59.296C107.373 59.312 107.485 59.368 107.573 59.464C107.749 59.672 107.993 59.84 108.305 59.968C108.617 60.088 108.961 60.148 109.337 60.148C109.889 60.148 110.293 60.056 110.549 59.872C110.813 59.68 110.949 59.444 110.957 59.164C110.957 58.892 110.825 58.664 110.561 58.48C110.305 58.296 109.865 58.152 109.241 58.048C108.433 57.912 107.841 57.684 107.465 57.364C107.097 57.044 106.913 56.66 106.913 56.212C106.913 55.804 107.025 55.464 107.249 55.192C107.473 54.92 107.765 54.716 108.125 54.58C108.493 54.444 108.889 54.376 109.313 54.376C109.849 54.376 110.313 54.468 110.705 54.652C111.097 54.828 111.413 55.068 111.653 55.372C111.741 55.484 111.777 55.604 111.761 55.732C111.753 55.852 111.689 55.948 111.569 56.02C111.465 56.092 111.341 56.116 111.197 56.092C111.061 56.068 110.945 56.004 110.849 55.9C110.649 55.684 110.421 55.528 110.165 55.432C109.909 55.328 109.617 55.276 109.289 55.276C108.873 55.276 108.537 55.36 108.281 55.528C108.025 55.688 107.897 55.896 107.897 56.152C107.897 56.328 107.941 56.48 108.029 56.608C108.125 56.736 108.289 56.852 108.521 56.956C108.761 57.052 109.101 57.14 109.541 57.22C110.141 57.324 110.613 57.472 110.957 57.664C111.309 57.848 111.557 58.064 111.701 58.312C111.853 58.56 111.929 58.836 111.929 59.14C111.929 59.516 111.821 59.848 111.605 60.136C111.397 60.416 111.101 60.64 110.717 60.808C110.333 60.976 109.877 61.06 109.349 61.06ZM120.629 61.06C120.133 61.06 119.649 60.98 119.177 60.82C118.713 60.652 118.341 60.416 118.061 60.112C117.965 60.008 117.925 59.888 117.941 59.752C117.957 59.616 118.021 59.504 118.133 59.416C118.261 59.32 118.389 59.28 118.517 59.296C118.653 59.312 118.765 59.368 118.853 59.464C119.029 59.672 119.273 59.84 119.585 59.968C119.897 60.088 120.241 60.148 120.617 60.148C121.169 60.148 121.573 60.056 121.829 59.872C122.093 59.68 122.229 59.444 122.237 59.164C122.237 58.892 122.105 58.664 121.841 58.48C121.585 58.296 121.145 58.152 120.521 58.048C119.713 57.912 119.121 57.684 118.745 57.364C118.377 57.044 118.193 56.66 118.193 56.212C118.193 55.804 118.305 55.464 118.529 55.192C118.753 54.92 119.045 54.716 119.405 54.58C119.773 54.444 120.169 54.376 120.593 54.376C121.129 54.376 121.593 54.468 121.985 54.652C122.377 54.828 122.693 55.068 122.933 55.372C123.021 55.484 123.057 55.604 123.041 55.732C123.033 55.852 122.969 55.948 122.849 56.02C122.745 56.092 122.621 56.116 122.477 56.092C122.341 56.068 122.225 56.004 122.129 55.9C121.929 55.684 121.701 55.528 121.445 55.432C121.189 55.328 120.897 55.276 120.569 55.276C120.153 55.276 119.817 55.36 119.561 55.528C119.305 55.688 119.177 55.896 119.177 56.152C119.177 56.328 119.221 56.48 119.309 56.608C119.405 56.736 119.569 56.852 119.801 56.956C120.041 57.052 120.381 57.14 120.821 57.22C121.421 57.324 121.893 57.472 122.237 57.664C122.589 57.848 122.837 58.064 122.981 58.312C123.133 58.56 123.209 58.836 123.209 59.14C123.209 59.516 123.101 59.848 122.885 60.136C122.677 60.416 122.381 60.64 121.997 60.808C121.613 60.976 121.157 61.06 120.629 61.06Z" fill="white"/>
</svg>
